<?xml version="1.0" encoding="UTF-8"?>
<svg id="Layer_1" xmlns="http://www.w3.org/2000/svg" version="1.1" viewBox="293 523 1461 1001">
  <!-- Generator: Adobe Illustrator 30.1.0, SVG Export Plug-In . SVG Version: 2.1.1 Build 136)  -->
  <defs>
    <style>
      .st0 {
        fill: #3E322A;
      }

      .st1 {
        fill: #8A857D;
      }
    </style>
  </defs>
  <g>
    <g>
      <path class="st0" d="M619.18,1500.86c-.23-4.71-.19-8.49.06-12.07,10.08-.46,18.88-1.17,26.2-7.81,4.28-3.89,7.22-11,7.22-17.89l.03-302.56c0-5.93-.9-11-2.1-16.22-3.28-14.24-19.86-15.45-32.07-15.99l-.23-10.95,94.85-15.78.39,45.38c12.69-16.93,26.43-31.04,45.72-39.07,57-23.74,119.14,8.11,139.2,66.32,10.42,30.24,11.91,62.17,5.53,93.48-5.44,26.66-18.59,50.13-37.77,69.04-22.89,21.38-52.43,31.8-83.68,31.31-26.02-.41-49.01-9.49-68.35-28.16l-.17,111.36c0,5.9.53,11.35,1.61,16.86,3.79,19.33,25.6,20.3,42.01,20.64l-.15,12.02-138.28.08ZM840.51,1274.18c3.53-28.81,2.69-57.73-3.82-85.98-6.96-30.21-26.15-62.66-61.12-61.15-28,1.21-45.66,19.92-58.39,42.86-1.17,3.55-3.12,7.57-3.12,11.48v118.04c6.39,27.29,29.45,47.86,57.25,50.14,43.37,3.55,64.72-38.81,69.2-75.39Z"/>
      <path class="st0" d="M387.83,1356.83c-10.56-3.62-20.05-6.37-30.24-8.56-9.05-1.94-17.77.44-23.39,7.59l-11.21.19-5.77-115.84,13.5-.38c12.57,42.03,34.79,83.28,76.26,101.89,36.11,16.21,86.94,16.58,114.43-16.59,14.57-17.58,18.59-41.74,11.69-63.32-7.6-23.8-29.18-38.66-50.88-48.34-19.13-8.54-37.98-15.77-57.54-23.29-30.32-11.66-55.5-21.74-77.78-46.18-9.79-10.74-16.67-22.74-20.25-36.93-4.57-18.14-4.59-36.45-.03-54.79,8.88-35.67,37.84-61.62,72.87-72.06,33.42-9.96,68.65-8.28,101.55,3.21,15.03,5.25,33.93,14.09,45.15-.59l11.13-.1,7.21,105-13.12.15c-8.9-31.08-27.16-69-56.6-85.82-34.37-19.64-88.39-18.45-112.32,15.21-16.77,23.59-13.1,54.6,8,74.13,9.38,8.68,19.92,14.89,31.76,20.32,41.09,18.85,75,25.67,114.53,49.43,20.33,12.22,36.86,28.9,45.58,51.39,11.15,28.75,10.01,60.89-2.59,89.03-15.43,34.44-49.03,56.28-85.51,63.59-35.89,7.2-71.53,3.62-106.44-8.33Z"/>
      <path class="st0" d="M950.27,1323.24c-8.13-25.05-.01-51.21,18.57-68.5,7.4-6.88,14.89-12.04,24.07-16.25,36.82-16.86,65.7-16.93,103.66-30.24-.63-22.19,1.6-46.16-6.65-66.24-11.6-28.26-46.79-31.7-68.8-18.34-10.56,6.41-12.59,18.7-6.97,28.96,4.03,7.36,5.24,15.47,1.29,23.38-7.62,15.23-28.56,17.7-41.17,11.78-10.2-4.79-16.12-14.15-15.6-25.54,1.16-25.44,25.95-43.01,47.68-51.34,25.51-9.78,52.83-12.26,79.89-8.34,28.93,4.19,53.8,18.73,63.96,47.22,4.66,13.09,6.98,26.27,7.02,40.59l.32,122.78c.02,6.29,1,12.46,3.08,17.94,3.74,9.86,14.39,14.35,23.84,10.03,3.93-1.8,6.76-4.56,10.45-8.05l9.44,8.67c-18.98,27.26-64.18,36.28-90.01,13.75-7.78-6.78-11.79-16.12-13.54-25.99-25.23,30.26-62.75,45.08-101.21,36.86-22.99-4.92-41.88-20.2-49.33-43.13ZM1013.14,1309.18c3.66,14.35,13.97,25.05,28.21,28.28,22.2,5.03,45.14-5.75,55.36-26.12v-87.61s-41.04,14.53-41.04,14.53c-13.79,5.22-26.09,12.45-34.92,24.3-9.53,13.5-11.84,30.04-7.61,46.62Z"/>
      <path class="st0" d="M1632.13,1336.82c40.07,4.33,67.89-13.09,86.91-48.38l11.75,5.36c-14.66,34.81-42.29,62.82-80.34,71.39-60.83,13.7-124.48-12.96-148.04-72.96-23.89-60.86-8.34-141.46,52.64-175.36,33.3-18.51,73.29-21.15,109.04-7.95,45.18,16.68,66.78,63.7,62.81,109.75l-172.28.05c-.23,30.37,4.98,63.8,24.42,88.11,13.21,17.02,31.67,27.67,53.09,29.98ZM1663.43,1202.47c.74-18.46-.31-34.66-5.07-50.89-3.45-11.18-8.91-20.89-18.17-28.02-23.16-14.9-53.92-7.33-67.99,16.32-11.75,19.75-15.77,39.13-16.95,62.63l108.19-.04Z"/>
      <path class="st0" d="M1294.39,1176.32c-10.84,46.97-8.72,115.57,33.47,147.53,14.29,10.83,31.85,14.63,49.64,14.48,34.2-.29,56.99-19.44,72.62-49.18l12.17,4.54c-20.86,50.83-62.45,77.91-117.67,75.06-55.52-2.86-101.82-40.57-115.16-94.59-6.2-25.13-6.75-51.01-.33-76.07,12.73-49.69,52.09-86.17,102.58-94.83,23.08-3.96,46.25-2.86,68.73,4.3,26.83,8.53,52.84,29.92,49.66,60.53-1.92,18.54-19.25,28.98-37.01,25.67-9.02-1.68-16.71-6.36-20.6-13.51-4.79-8.8-3.98-18.95.91-27.19,5.98-10.07,4.63-20.72-4.75-28.05-7.13-5.57-15.75-7.74-24.95-8.72-38.54-4.13-61.51,26.34-69.29,60.03Z"/>
    </g>
    <g>
      <path class="st0" d="M811.16,788.29l-133.75.09-22.65,61.5c-6,16.28-13.89,38.92,6.18,47.84,7.3,3.24,14.75,4.17,23.01,5.05l.12,10.96-105.34.03c-.85-3.39-.83-7.37-.33-10.99,23.32-1.73,40.79-13.24,49.18-35.13l25.48-66.48,60.48-162.09,34.47-91.91,25.49.02,44.45,97.61,100.01,221.42c10,22.13,23.74,35.47,49.69,36.21.3,3.39.31,7.56.01,11.4l-143.95-.02.18-11.37c11.11-1.42,27.19-1.27,28.18-14.85-1.08-4.51-2.02-8.81-3.9-13.19l-37-86.09ZM683.58,771.78h120.4s-65.03-149.61-65.03-149.61l-13.15,34.89-42.22,114.72Z"/>
      <path class="st0" d="M1417.87,882.23c18.69-7.76,30.93-24.29,40.34-41.42l11.74,5.87c-9.39,22.27-23.64,41.87-44.16,55.28-40.57,26.51-99.68,22.78-138.82-5.41-51.72-37.25-64.66-112.32-38.55-169.12,11.53-25.07,30.47-44.43,54.93-56.88,32.94-16.77,84.4-17.24,116.59,3.11,33.53,20.23,48.28,61.32,45.27,99.65l-167.79.14c.64,30.84,6.02,61.99,25.35,86.45,22.22,28.74,61.99,36.08,95.09,22.33ZM1404.44,757.27l-.49-19.98c-.37-14.78-3.81-28.85-10.65-41.92-7.17-13.71-20.65-21.71-36.08-22.14-44.18-1.24-57.32,48.53-59.23,83.95l106.45.08Z"/>
      <path class="st0" d="M1041.24,727.23c-10.68,40.39-9.84,93.5,14.72,129.32,14.51,21.17,37.41,33.29,63.26,33.45,34.69.21,59.38-17.59,75.07-47.77l12.05,4.29c-7.97,18.33-18.48,34.43-33.52,47.41-39.56,34.13-102.57,33.31-145.76,5.54-29.23-18.79-47.69-49.46-53.39-83.47-5.11-30.51-1.91-60.99,11.7-88.59,27.69-56.16,92.25-79.39,151.02-65.32,27.32,6.54,55.58,24.73,57.53,55.22.51,7.98-1.56,16.12-6.69,22.07-13.35,15.49-41.88,12.65-50.6-4.28-4.32-8.39-3.72-17.71.77-25.76,5.47-9.8,4.53-20.54-4.73-27.59-7.5-5.72-16.69-8.09-26.22-8.88-34.75-2.88-57.13,23.75-65.23,54.37Z"/>
    </g>
  </g>
  <g>
    <path class="st1" d="M1576.23,1025.24c-7.52,18.9-20.44,44.49-38.77,54.3-6.22,3.33-13.34,4.39-19.99,2.36-8.06-2.46-12.31-10.37-9.28-18.27,1.45-3.77,5.09-6.02,8.77-6.19s7.9,1.15,9.59,5.16c1.54,3.65.8,8.2.44,12.93,5.26,1.27,10.76-1.89,13.61-6.72,4.94-8.35,9.08-17,12.1-26.32l8.39-25.88,22.99-80.91-20.54-.04,1.9-9.76,21.38-.2c6.35-23.27,14.85-45.24,35.8-58.94,9.12-5.97,20.41-8.23,30.95-5.65,7.21,1.76,12.77,7.78,12.57,15.05-.14,5.03-3.02,9.56-7.19,11-4.28,1.47-9.65.85-12.58-3.25-3.75-5.24,1.33-13.92-2.09-16.41s-7.9-.94-11.04,1.23c-5.47,3.77-9.34,9.02-12.26,15.11-6.43,13.43-10.69,27.1-14.51,41.89l23.94.22-2.47,9.84-24.06.12-13.67,46.32c-4.34,14.72-8.35,28.84-14,43.03Z"/>
    <path class="st1" d="M1511.81,1019.94c-9.23,6.34-19.19,8.48-29.69,7.79-17.82-1.16-30.68-15.06-31.22-32.98-.69-22.95,9.43-45.51,27.63-59.88,10.88-8.59,24.45-11.69,37.84-9.4,14.26,2.44,24.62,12.99,26.44,27.8,3.19,25.93-9.21,51.69-31,66.67ZM1496.23,1019.35c6.3-3.98,10.58-9.69,13.96-16.08,8.97-16.93,16.94-43.97,9.91-62.53-2.85-7.51-9.79-11.42-17.88-9.46-5.98,1.45-11.03,5.69-14.55,11.25-10.94,17.25-16.8,37.75-16.39,58.21.15,7.36,2.06,14.63,7.94,18.97,4.75,3.51,11.74,2.97,17-.36Z"/>
  </g>
</svg>